<?xml version="1.0" encoding="utf-8"?>
<!-- Generator: Adobe Illustrator 19.0.0, SVG Export Plug-In . SVG Version: 6.00 Build 0)  -->
<svg version="1.1" id="Layer_1" xmlns="http://www.w3.org/2000/svg" xmlns:xlink="http://www.w3.org/1999/xlink" x="0px" y="0px"
	 viewBox="-14 138 566.9 566.9" style="enable-background:new -14 138 566.9 566.9;" xml:space="preserve">
<style type="text/css">
	.st0{fill:#7984C0;}
	.st1{opacity:0.65;}
</style>
<circle id="XMLID_3_" class="st0" cx="268.3" cy="421.5" r="268.7"/>
<g id="XMLID_7_" class="st1">
	<path id="XMLID_34_" d="M394.4,619.9c1.9,2,3.7,3.8,5.4,5.5c-0.2,0.5-0.4,1-0.6,1.4c-4.3,0.6-8.6,1.7-12.9,1.8
		c-13.9,0.5-27.8,0.6-41.6,0.8c-19.7,0.3-39.5,0.7-59.2,0.7c-14.8,0-29.6-0.4-44.4-0.6c-9.3-0.1-18.6,0.1-27.9-0.2
		c-3.6-0.1-7.2-1-10.7-1.6c-8.3-1.6-16.2-0.8-23.9,2.9c-8.5,4.2-17.3,2.1-26,0.8c-0.6-0.1-1-2-1.8-3.8c-5.5-0.6-11.8-1.2-18.1-2.1
		c-2.9-0.4-5.8-1.2-8.6-2.3c-1.1-0.4-2.7-1.9-2.5-2.7c0.2-1.3,1.4-2.9,2.6-3.4c2.2-1,4.6-1.2,7.6-2c-1.9-1.1-3.4-2.2-5-2.8
		c-17-6.7-18.9-24-14.6-36.3c3.9-11,10.9-18.8,23.1-20.6c0.4-0.1,0.8,0,1.1-0.2c5.9-3.7,12-7.1,17.5-11.3c1.9-1.5,2.9-4.8,3.3-7.5
		c2-12.8,3.5-25.7,5.7-38.5c0.8-5.1,2.3-10.2,4.6-14.8c5.9-11.6,7.1-23.9,7.9-36.5c1.3-21.4,3.1-42.7,4.6-64
		c1.1-14.9,8.6-25,22.5-30.1c8.1-3,16.5-5.4,24.6-8.4c5.3-2,10.6-4.1,15.6-6.9c6.4-3.6,8.7-10.5,5.9-17.2c-1.2,2.1-2.1,3.7-2.9,5.3
		c-0.7,1.4-0.8,3.3-1.9,4.2c-1.6,1.2-3.8,2.1-5.7,2.2c-1.1,0-2.8-1.6-3.4-2.9c-0.9-1.8-1.5-4-1.5-6c0.1-7.4-3-13.5-7-19.4
		s-7.9-11.9-8.3-19.4c-0.2-3.8-0.3-7.5,3.6-10c0.8-0.5,0.9-2.7,0.7-4c-3.2-14.9-2.8-29.4,4-43.3c1.1-2.3,3.2-4.3,5.2-6
		c3-2.5,6.5-4.3,9.4-6.9c2.3-2,4.7-4.5,5.7-7.2c2.2-5.9,7.9-7.4,12.1-11.5c0.8-9.1,4.2-9.4,11-9.1c3.2,0.1,5.8,2.2,5.8,5.3
		c0,5.4,3.9,6.3,7.5,7.9c1,0.5,1.9,1.3,2.6,2.1c1,1.1,1.9,2.4,2.8,3.6c0.5,0.6,1.5,1,1.6,1.6c1.3,5.5,6.6,6.5,10.4,9.3
		c8,5.9,12.2,14.3,13.4,23.8c1.2,8.8,0.9,17.8,1.1,26.7c0.1,2.8-0.7,5.6,3.7,5.5c0.8,0,2,1.9,2.3,3.1c1.8,6.6,1.5,13.1-1.3,19.4
		c-2,4.4-4.2,8.6-6.5,12.8c-3.9,7-6.7,14.3-6.8,22.4c0,0.8-1.1,2.4-1.7,2.4c-2.4,0-5,0-7.2-0.8c-1.1-0.4-1.7-2.5-2.9-3.6
		c1,2.6,1.8,5.3,3.1,7.8c0.3,0.7,2,1,3,0.9c6.5-0.2,11.8,2.2,16.6,6.5c1.2,1.1,2.8,1.8,4.4,2.2c12.2,3.2,23.6,8.1,31.9,18.1
		c7.2,8.7,10.5,18.9,11.3,30.1c0.2,3.1,0.5,6,2.7,8.6c1.3,1.6,2.2,4.5,1.8,6.5c-2.1,11.2,1.1,21.6,3.8,32.1c2.3,9.2,4.4,18.4,6,27.7
		c2.1,12.7-2.1,22.9-12.8,30.3c-6.1,4.2-12,8.7-17.5,13.6c-2.4,2.1-3.9,5.4-5.2,8.5c-1.4,3.4-0.9,6.8,1.6,9.8c1.5,1.9,4,3.7,1.8,6.8
		c-0.2,0.4,1.1,2.5,2,2.9c3.6,1.4,7.2,3,11,3.6c7,1.2,13.6,2.9,19.4,7.3c2,1.5,4.7,2,7.1,2.9c0.9,0.4,2,0.5,2.7,1.2
		c4.3,4.1,8.7,8.2,12.7,12.6C415.6,583.2,413.8,608.7,394.4,619.9z M192.2,534.8c4-0.6,7.4-1.1,10.9-1.7c0.6-0.1,1.3-0.6,1.8-1.1
		c2.4-2.6,4.7-5.5,7.3-8c3.6-3.6,5.5-7.5,3.5-12.5c-1.7-4.2-0.3-7.6,2.2-11.1c5.1-7,9.7-14.3,14.3-21.6c0.6-0.9,0.6-2.2,0.5-3.3
		c-0.3-11.2-2.4-22.1-7-32.4c-2-4.4-5-8.5-3.1-13.9c0.3-0.8-1.7-2.4-2.6-3.6c-0.9,0.9-2.3,1.7-2.5,2.7c-2.5,12.3-5.2,24.5-7.1,36.9
		c-1.7,11.1-2.2,22.4-3.4,33.6c-1,9.8-5.6,18.2-10.1,26.7C195.3,528.5,193.8,531.7,192.2,534.8z M326.5,420.6c-0.6,0-1.3,0-1.9,0.1
		c-3.2,14.1-6.8,28.1-9.5,42.3c-1.6,8.4-0.1,16.7,5.6,23.8c4.8-2.7,9.4-5,13.8-7.8c5.1-3.2,6-6.1,4.6-11.8c-0.3-1.4-0.9-2.8-0.9-4.2
		c0.1-2.8-0.9-4.7-3.3-6.5c-2.1-1.5-4.2-3.9-2.9-6.9C337.1,438.4,329.5,430,326.5,420.6z"/>
</g>
</svg>
