<?xml version="1.0" encoding="utf-8"?>
<!-- Generator: Adobe Illustrator 19.0.0, SVG Export Plug-In . SVG Version: 6.00 Build 0)  -->
<svg version="1.1" id="Layer_1" xmlns="http://www.w3.org/2000/svg" xmlns:xlink="http://www.w3.org/1999/xlink" x="0px" y="0px"
	 viewBox="-14 138 566.9 566.9" style="enable-background:new -14 138 566.9 566.9;" xml:space="preserve">
<style type="text/css">
	.st0{fill:#7984C0;}
	.st1{opacity:0.65;}
</style>
<circle id="XMLID_3_" class="st0" cx="268.3" cy="421.5" r="268.7"/>
<g id="XMLID_29_" class="st1">
	<path id="XMLID_83_" d="M307.4,473.7c-10.9,0.5-21.1,1.1-32.3,1.6c2,6.2,4.1,12.3,6,18.5c7.9,25.7,9.1,51.2-1,76.7
		c-12.7,32.3-37.6,48.8-70.9,52c-53.1,5-92.5-18.7-119-63.3C68.5,522.5,60,482,65.1,439.2c0.4-3,1.1-5.9,1.6-8.9
		c7-2.4,8.6,1.3,9.4,7c4,27.3,11.8,53.2,26.3,77c25.5,41.7,69.8,57.4,112,39.2c23.1-9.9,35.1-33.4,28.3-55.4
		c-5.1-16.6-22.7-26.4-39.6-22.2c-7.7,1.9-15.3,4.2-23.1,5.3c-13.7,2.1-23.9-5.3-26.3-19c-1-5.9-1-12.1-1.1-18.1
		c-0.1-6.4,0.4-12.8,0-19.1c-0.4-6.2-1.6-12.4-2.5-19.4c9.3,1.4,18.5,2.9,27.7,4.3c15.6,2.4,30.2-1.1,44.1-8
		c7.6-3.8,12.2-9.9,11.7-18.9c-0.5-8.8-5.1-14.7-13-18.2c-11.6-5.1-23.8-6.1-35.5-1.3c-13.4,5.5-26.3,12.2-39.3,18.8
		c-5.4,2.7-10.1,6.6-16,10.6c-8.9-17-18-33.4-25.8-50.3c-1.4-3.1,0.6-10.4,3.4-12.5c34.2-24.8,72-36.3,114.2-27.4
		c45,9.5,56.8,60.9,42.4,93.9c-7.2,16.4-17.2,30.5-32.2,41c21.1,15,34.4,13,47.8-7.5c5.3-8.1,9.3-17.1,13.7-25.7
		c8.6-16.6,19-31.9,34.4-43c32.6-23.6,76.2-16.7,102.6,15.6c13.8,16.9,22.4,36,26,57.3c5.5,32.1,6.8,64.1-4.7,95.3
		c-9.6,26.1-27.3,45.1-52.5,56.6c-40.3,18.3-84.7-4.6-94.4-49.8c-3.4-15.7-2.4-32.5-2.5-48.8C302.4,483.2,305.5,478.7,307.4,473.7z
		 M430.3,447.1c-3.3-13.1-5.6-26.6-10.3-39.2c-6.6-17.7-24.6-22.7-40.2-11.7c-5.8,4.1-10.7,9.8-15,15.6
		c-6.3,8.5-11.6,17.8-17.3,26.7c-8.1,12.6-17.3,24.1-31.1,31.1c-1.6,0.8-3.3,3.7-3.2,5.5c2.8,31.6,17.4,53.5,56.9,47.7
		C405,517.6,427.6,487.2,430.3,447.1z"/>
	<path id="XMLID_82_" d="M239.4,220c9.4,36.7,30.8,61,67.3,66c36,4.9,62.4-15,83.4-41.7c10.5,9.3,20.7,18.3,30.8,27.5
		c12.1,11,12.4,17.8,0.4,28.3c-32.5,28.7-70.3,41.2-113.5,34.3C267.2,327.8,219.5,272.5,239.4,220z"/>
	<path id="XMLID_81_" d="M313.4,194.4c12.3,11.8,23.7,22.7,35.1,33.7c4.6,4.5,4.3,9.2,0.1,13.6c-11.4,12.2-23,24.2-35.2,36.9
		c-13.3-12.6-25.3-23.7-37-35.2c-5.1-5-4.1-10.5,0.8-15.2C289,217.2,300.7,206.3,313.4,194.4z"/>
</g>
</svg>
