<?xml version="1.0" encoding="utf-8"?>
<!-- Generator: Adobe Illustrator 19.0.0, SVG Export Plug-In . SVG Version: 6.00 Build 0)  -->
<svg version="1.1" id="Layer_1" xmlns="http://www.w3.org/2000/svg" xmlns:xlink="http://www.w3.org/1999/xlink" x="0px" y="0px"
	 viewBox="0 0 188 526" style="enable-background:new 0 0 188 526;" xml:space="preserve">
<style type="text/css">
	.st0{fill:#7986C1;}
</style>
<path id="XMLID_114_" class="st0" d="M188,8.327c-5.802,0.01-9.091,1.389-9.812,10.349c-2.879,2.391-5.034,5.276-7.849,6.251
	c-3.769,1.305-4.204,4.337-5.847,6.967c-1.932,3.092-4.261,6.083-6.966,8.506c-3.177,2.845-7.112,4.831-10.398,7.574
	c-2.305,1.924-4.686,4.188-5.98,6.819c-7.786,15.833-8.239,32.428-4.566,49.396c0.316,1.458,0.167,4.021-0.703,4.562
	c-4.506,2.801-4.398,6.993-4.18,11.348c0.427,8.542,4.843,15.429,9.415,22.188c4.559,6.739,8.157,13.7,8.025,22.167
	c-0.036,2.289,0.65,4.764,1.656,6.837c0.717,1.477,2.549,3.418,3.842,3.388c2.235-0.052,4.882-0.984,6.523-2.467
	c1.492-1.349,1.774-3.975,2.782-5.94c0.779-1.518,1.857-2.884,3.156-4.856c2.577,8.476-0.133,15.897-7.396,19.87
	c-5.547,3.034-11.48,5.454-17.427,7.647c-9.426,3.476-19.096,6.296-28.503,9.82c-15.728,5.892-24.141,17.441-25.366,34.203
	c-1.781,24.376-3.661,48.746-5.302,73.132c-0.916,13.615-1.668,27.103-8.042,39.718c-2.957,5.852-4.976,12.423-6.112,18.898
	c-2.556,14.571-4.321,29.281-6.354,43.942c-0.59,4.256-1.809,7.978-5.837,10.374c-5.939,3.533-11.731,7.314-17.602,10.962
	c-0.354,0.22-0.849,0.238-1.285,0.301c-16.173,2.337-24.325,12.961-28.02,27.729c-3.476,13.892,0.784,30.459,16.948,36.794
	c2.134,0.836,4.053,2.219,6.751,3.73c-3.396,0.739-6.095,0.917-8.391,1.972c-1.496,0.687-3.038,2.525-3.341,4.085
	c-0.178,0.915,1.827,2.832,3.208,3.355c3.011,1.141,6.21,1.963,9.404,2.405c7.167,0.992,14.377,1.673,21.57,2.48
	c-0.207,0.466-0.414,0.932-0.621,1.397c0.738,1.043,1.351,2.871,2.232,3.01c10.39,1.645,20.832,3.504,30.899-1.622
	c8.014-4.081,16.48-4.297,25.141-2.779c4.227,0.741,8.463,1.799,12.719,1.927c10.616,0.319,21.246,0.137,31.869,0.25
	c9.92,0.105,19.84,0.282,29.76,0.428V8.327z M148.321,342.278c-5.166,8.069-10.156,16.282-15.847,23.973
	c-3.351,4.53-5.356,8.772-3.126,14.247c2.175,5.339-0.039,9.413-3.634,13.203c-3.032,3.195-5.87,6.572-8.867,9.801
	c-0.521,0.562-1.367,1-2.127,1.134c-3.859,0.684-7.738,1.248-12.407,1.98c2.354-4.583,4.451-9.266,7.064-13.642
	c7.322-12.261,10.101-25.613,11.194-39.716c1.771-22.848,3.714-45.74,10.615-67.801c0.451-1.442,2.095-2.51,3.184-3.752
	c0.966,1.741,3.066,3.793,2.69,5.166c-1.226,4.474,0.243,8.015,2.169,11.787c6.442,12.616,9.088,26.178,9.542,40.232
	C148.808,340.026,148.88,341.405,148.321,342.278z"/>
</svg>
